<svg width="297" height="133" viewBox="0 0 297 133" fill="none" xmlns="http://www.w3.org/2000/svg">
<g filter="url(#filter0_d_4_4120)">
<path d="M36.5 21.7131H248.628C255.222 21.7131 260.568 27.0592 260.568 33.654V69.654C260.568 76.2487 255.222 81.5948 248.628 81.5948H48.4409C41.8461 81.5948 36.5 76.2487 36.5 69.654V21.7131Z" fill="white"/>
<rect x="48.4408" y="33.654" width="36" height="36" rx="16" fill="#11453B"/>
<g clip-path="url(#clip0_4_4120)">
<path d="M63.9408 52.279L65.8158 54.154L68.9408 49.779M73.9408 51.654C73.9408 55.7961 70.5829 59.154 66.4408 59.154C62.2987 59.154 58.9408 55.7961 58.9408 51.654C58.9408 47.5119 62.2987 44.154 66.4408 44.154C70.5829 44.154 73.9408 47.5119 73.9408 51.654Z" stroke="white" stroke-width="1.5" stroke-linecap="round" stroke-linejoin="round"/>
</g>
<path d="M93.8741 43.9195C93.9338 45.5674 95.1279 46.7256 97.1698 46.7256C98.9251 46.7256 100.143 45.7107 100.143 44.2658C100.143 42.6419 98.746 42.1881 97.3847 41.9612C96.1309 41.7463 95.116 41.5433 95.116 40.5403C95.116 39.6447 95.8444 39.1671 96.931 39.1671C98.0654 39.1671 98.8415 39.7999 98.9609 40.7672H100.036C99.9401 39.2626 98.7938 38.2237 96.931 38.2237C95.2354 38.2237 94.0771 39.179 94.0771 40.6C94.0771 42.2239 95.4623 42.6657 96.8116 42.8926C98.0773 43.1076 99.1042 43.3225 99.1042 44.3613C99.1042 45.2689 98.3042 45.7823 97.1817 45.7823C95.9041 45.7823 95.0324 45.042 94.9488 43.9195H93.8741ZM101.82 39.5372C102.178 39.5372 102.453 39.2745 102.453 38.9044C102.453 38.5342 102.178 38.2715 101.82 38.2715C101.462 38.2715 101.187 38.5342 101.187 38.9044C101.187 39.2745 101.462 39.5372 101.82 39.5372ZM101.318 46.654H102.297V40.5642H101.318V46.654ZM110.433 40.4925C109.347 40.4925 108.69 40.994 108.32 41.6508C107.973 40.8746 107.245 40.4925 106.397 40.4925C105.454 40.4925 104.94 40.9582 104.618 41.4L104.487 40.5642H103.639V46.654H104.618V43.4419C104.618 42.2239 105.227 41.3881 106.23 41.3881C107.161 41.3881 107.699 42.009 107.699 43.2031V46.654H108.678V43.3941C108.678 42.1523 109.299 41.3881 110.314 41.3881C111.233 41.3881 111.759 42.009 111.759 43.2031V46.654H112.738V43.1434C112.738 41.2209 111.699 40.4925 110.433 40.4925ZM117.063 40.4925C116.036 40.4925 115.379 40.9821 114.973 41.5433L114.842 40.5642H113.994V49.0422H114.973V45.7226C115.343 46.3077 116.036 46.7256 117.063 46.7256C118.746 46.7256 119.988 45.4718 119.988 43.6091C119.988 41.6269 118.746 40.4925 117.063 40.4925ZM116.967 45.854C115.773 45.854 114.961 44.9226 114.961 43.5852C114.961 42.2836 115.773 41.3642 116.967 41.3642C118.173 41.3642 118.985 42.2836 118.985 43.6091C118.985 44.9345 118.173 45.854 116.967 45.854ZM121.107 46.654H122.086V38.2954H121.107V46.654ZM123.929 39.5372C124.287 39.5372 124.562 39.2745 124.562 38.9044C124.562 38.5342 124.287 38.2715 123.929 38.2715C123.571 38.2715 123.296 38.5342 123.296 38.9044C123.296 39.2745 123.571 39.5372 123.929 39.5372ZM123.428 46.654H124.407V40.5642H123.428V46.654ZM125.103 41.4597H126.202V46.654H127.181V41.4597H128.9V40.5642H127.181V39.8596C127.181 39.394 127.36 39.191 127.85 39.191H128.9V38.2954H127.79C126.656 38.2954 126.202 38.8089 126.202 39.8835V40.5642H125.103V41.4597ZM131.457 46.6898L131.158 47.4301C130.931 48.0033 130.836 48.1466 130.275 48.1466H129.403V49.0422H130.573C131.433 49.0422 131.66 48.6601 132.042 47.6809L134.848 40.5642H133.809L131.994 45.4241L130.119 40.5642H129.081L131.457 46.6898ZM141.772 40.4925C140.745 40.4925 140.089 40.9821 139.683 41.5433L139.551 40.5642H138.703V49.0422H139.683V45.7226C140.053 46.3077 140.745 46.7256 141.772 46.7256C143.456 46.7256 144.698 45.4718 144.698 43.6091C144.698 41.6269 143.456 40.4925 141.772 40.4925ZM141.677 45.854C140.483 45.854 139.671 44.9226 139.671 43.5852C139.671 42.2836 140.483 41.3642 141.677 41.3642C142.883 41.3642 143.695 42.2836 143.695 43.6091C143.695 44.9345 142.883 45.854 141.677 45.854ZM151.202 45.7584C150.927 45.7584 150.808 45.6748 150.808 45.3524V42.6896C150.808 41.2687 149.912 40.4925 148.36 40.4925C146.891 40.4925 145.924 41.197 145.781 42.3911H146.76C146.879 41.7702 147.453 41.3642 148.312 41.3642C149.268 41.3642 149.829 41.8418 149.829 42.6299V43.0479H148.038C146.438 43.0479 145.59 43.7285 145.59 44.9464C145.59 46.0569 146.497 46.7256 147.835 46.7256C148.885 46.7256 149.494 46.2599 149.877 45.7107C149.888 46.3077 150.163 46.654 150.975 46.654H151.512V45.7584H151.202ZM149.829 44.1703C149.829 45.1853 149.124 45.8898 147.906 45.8898C147.094 45.8898 146.581 45.4838 146.581 44.8867C146.581 44.1942 147.07 43.8718 147.942 43.8718H149.829V44.1703ZM153.811 46.6898L153.512 47.4301C153.285 48.0033 153.19 48.1466 152.629 48.1466H151.757V49.0422H152.927C153.787 49.0422 154.014 48.6601 154.396 47.6809L157.202 40.5642H156.163L154.348 45.4241L152.473 40.5642H151.435L153.811 46.6898ZM160.75 40.5642C159.664 40.5642 159.198 41.0179 158.912 41.4836L158.78 40.5642H157.932V46.654H158.912V43.5494C158.912 42.5822 159.258 41.5194 160.536 41.5194H161.025V40.5642H160.75ZM164.33 46.7256C166.109 46.7256 167.351 45.4599 167.351 43.6091C167.351 41.7582 166.109 40.4925 164.33 40.4925C162.551 40.4925 161.309 41.7582 161.309 43.6091C161.309 45.4599 162.551 46.7256 164.33 46.7256ZM164.33 45.854C163.124 45.854 162.312 44.9106 162.312 43.6091C162.312 42.3075 163.124 41.3642 164.33 41.3642C165.536 41.3642 166.348 42.3075 166.348 43.6091C166.348 44.9106 165.536 45.854 164.33 45.854ZM168.474 46.654H169.453V38.2954H168.474V46.654ZM170.794 46.654H171.774V38.2954H170.794V46.654ZM177.637 46.654H178.712L180.24 42.1284L181.709 46.654H182.784L184.814 40.5642H183.823L182.234 45.5196L180.718 40.5642H179.81L178.21 45.5196L176.694 40.5642H175.667L177.637 46.654ZM186.082 39.5372C186.44 39.5372 186.715 39.2745 186.715 38.9044C186.715 38.5342 186.44 38.2715 186.082 38.2715C185.724 38.2715 185.449 38.5342 185.449 38.9044C185.449 39.2745 185.724 39.5372 186.082 39.5372ZM185.581 46.654H186.56V40.5642H185.581V46.654ZM188.355 45.0659C188.355 46.1405 188.773 46.654 189.943 46.654H191.006V45.7584H190.039C189.513 45.7584 189.334 45.5674 189.334 45.0539V41.4597H190.91V40.5642H189.334V38.8566H188.355V40.5642H187.256V41.4597H188.355V45.0659ZM194.839 40.4925C193.813 40.4925 193.192 40.994 192.833 41.5672V38.2954H191.854V46.654H192.833V43.6091C192.833 42.2359 193.538 41.3881 194.672 41.3881C195.723 41.3881 196.332 42.0568 196.332 43.3225V46.654H197.311V43.2628C197.311 41.2448 196.201 40.4925 194.839 40.4925ZM94.2085 64.654H99.6893V63.6987H95.2473V60.8807H98.8176V59.9254H95.2473V57.2507H99.5341V56.2954H94.2085V64.654ZM105.922 63.7584C105.648 63.7584 105.528 63.6748 105.528 63.3524V60.6896C105.528 59.2687 104.633 58.4925 103.08 58.4925C101.612 58.4925 100.644 59.197 100.501 60.3911H101.48C101.6 59.7702 102.173 59.3642 103.033 59.3642C103.988 59.3642 104.549 59.8418 104.549 60.6299V61.0479H102.758C101.158 61.0479 100.31 61.7285 100.31 62.9464C100.31 64.0569 101.218 64.7256 102.555 64.7256C103.606 64.7256 104.215 64.2599 104.597 63.7107C104.609 64.3077 104.883 64.654 105.695 64.654H106.233V63.7584H105.922ZM104.549 62.1703C104.549 63.1853 103.845 63.8898 102.627 63.8898C101.815 63.8898 101.301 63.4838 101.301 62.8867C101.301 62.1942 101.791 61.8718 102.662 61.8718H104.549V62.1703ZM106.793 59.4597H110.328L106.638 63.9137V64.654H111.796V63.7584H107.939L111.641 59.3045V58.5642H106.793V59.4597ZM113.224 57.5372C113.582 57.5372 113.857 57.2745 113.857 56.9044C113.857 56.5342 113.582 56.2715 113.224 56.2715C112.866 56.2715 112.591 56.5342 112.591 56.9044C112.591 57.2745 112.866 57.5372 113.224 57.5372ZM112.723 64.654H113.702V58.5642H112.723V64.654ZM118.112 58.4925C117.085 58.4925 116.428 58.9821 116.022 59.5433L115.891 58.5642H115.043V67.0422H116.022V63.7226C116.393 64.3077 117.085 64.7256 118.112 64.7256C119.796 64.7256 121.038 63.4718 121.038 61.6091C121.038 59.6269 119.796 58.4925 118.112 58.4925ZM118.017 63.854C116.822 63.854 116.011 62.9226 116.011 61.5852C116.011 60.2836 116.822 59.3642 118.017 59.3642C119.223 59.3642 120.035 60.2836 120.035 61.6091C120.035 62.9345 119.223 63.854 118.017 63.854ZM127.542 63.7584C127.267 63.7584 127.148 63.6748 127.148 63.3524V60.6896C127.148 59.2687 126.252 58.4925 124.7 58.4925C123.231 58.4925 122.264 59.197 122.121 60.3911H123.1C123.219 59.7702 123.792 59.3642 124.652 59.3642C125.607 59.3642 126.169 59.8418 126.169 60.6299V61.0479H124.377C122.777 61.0479 121.93 61.7285 121.93 62.9464C121.93 64.0569 122.837 64.7256 124.175 64.7256C125.225 64.7256 125.834 64.2599 126.216 63.7107C126.228 64.3077 126.503 64.654 127.315 64.654H127.852V63.7584H127.542ZM126.169 62.1703C126.169 63.1853 125.464 63.8898 124.246 63.8898C123.434 63.8898 122.921 63.4838 122.921 62.8867C122.921 62.1942 123.41 61.8718 124.282 61.8718H126.169V62.1703ZM130.151 64.6898L129.852 65.4301C129.625 66.0033 129.53 66.1466 128.969 66.1466H128.097V67.0422H129.267C130.127 67.0422 130.354 66.6601 130.736 65.6809L133.542 58.5642H132.503L130.688 63.4241L128.813 58.5642H127.774L130.151 64.6898ZM135.514 56.1282L135.275 59.209H134.619L134.38 56.1282H135.514ZM136.704 62.6479C136.727 63.9853 137.814 64.7256 139.39 64.7256C140.74 64.7256 141.826 64.0211 141.826 62.8867C141.826 61.5374 140.716 61.2747 139.331 61.1076C138.447 61.0001 137.802 60.9165 137.802 60.2478C137.802 59.6866 138.375 59.3284 139.223 59.3284C140.059 59.3284 140.632 59.7941 140.704 60.415H141.707C141.611 59.1493 140.608 58.5045 139.223 58.4925C137.85 58.4806 136.835 59.209 136.835 60.3195C136.835 61.5852 137.922 61.8598 139.283 62.027C140.19 62.1345 140.859 62.1942 140.859 62.9584C140.859 63.5196 140.25 63.8898 139.39 63.8898C138.375 63.8898 137.742 63.3644 137.707 62.6479H136.704ZM148.844 64.7256C150.623 64.7256 151.865 63.4599 151.865 61.6091C151.865 59.7582 150.623 58.4925 148.844 58.4925C147.065 58.4925 145.823 59.7582 145.823 61.6091C145.823 63.4599 147.065 64.7256 148.844 64.7256ZM148.844 63.854C147.638 63.854 146.826 62.9106 146.826 61.6091C146.826 60.3075 147.638 59.3642 148.844 59.3642C150.05 59.3642 150.862 60.3075 150.862 61.6091C150.862 62.9106 150.05 63.854 148.844 63.854ZM155.973 58.4925C154.946 58.4925 154.326 58.9224 153.967 59.3881L153.836 58.5642H152.988V64.654H153.967V61.6091C153.967 60.2359 154.66 59.3881 155.806 59.3881C156.869 59.3881 157.454 60.0568 157.454 61.3225V64.654H158.433V61.2628C158.433 59.2448 157.347 58.4925 155.973 58.4925ZM162.418 64.7256C163.827 64.7256 164.83 63.8301 165.069 62.6121H164.077C163.874 63.4002 163.206 63.854 162.346 63.854C161.188 63.854 160.459 63.042 160.424 61.8837V61.8001H165.152C165.164 61.6568 165.176 61.5135 165.176 61.3822C165.128 59.5791 164.006 58.4925 162.286 58.4925C160.567 58.4925 159.397 59.7582 159.397 61.6091C159.397 63.4718 160.591 64.7256 162.418 64.7256ZM160.483 60.9881C160.579 59.9971 161.403 59.3523 162.298 59.3523C163.313 59.3523 164.03 59.9374 164.125 60.9881H160.483ZM170.269 61.6688V60.8449H166.292V61.6688H170.269ZM174.334 64.7256C175.814 64.7256 176.805 63.8898 177.044 62.5763H176.005C175.814 63.3524 175.217 63.854 174.345 63.854C173.175 63.854 172.387 62.9464 172.387 61.621C172.387 60.2956 173.175 59.3642 174.345 59.3642C175.241 59.3642 175.838 59.8538 176.017 60.6657H177.044C176.793 59.3284 175.85 58.4925 174.357 58.4925C172.59 58.4925 171.384 59.7582 171.384 61.621C171.384 63.5196 172.554 64.7256 174.334 64.7256ZM178.118 64.654H179.097V56.2954H178.118V64.654ZM180.94 57.5372C181.298 57.5372 181.573 57.2745 181.573 56.9044C181.573 56.5342 181.298 56.2715 180.94 56.2715C180.581 56.2715 180.307 56.5342 180.307 56.9044C180.307 57.2745 180.581 57.5372 180.94 57.5372ZM180.438 64.654H181.417V58.5642H180.438V64.654ZM185.493 64.7256C186.974 64.7256 187.965 63.8898 188.204 62.5763H187.165C186.974 63.3524 186.377 63.854 185.505 63.854C184.335 63.854 183.547 62.9464 183.547 61.621C183.547 60.2956 184.335 59.3642 185.505 59.3642C186.401 59.3642 186.998 59.8538 187.177 60.6657H188.204C187.953 59.3284 187.01 58.4925 185.517 58.4925C183.75 58.4925 182.544 59.7582 182.544 61.621C182.544 63.5196 183.714 64.7256 185.493 64.7256ZM189.277 64.654H190.256V63.0539L191.486 61.7882L193.504 64.654H194.686L192.143 61.0837L194.519 58.5642H193.313L190.256 61.8001V56.2954H189.277V64.654ZM198.25 62.6479C198.274 63.9853 199.361 64.7256 200.937 64.7256C202.286 64.7256 203.373 64.0211 203.373 62.8867C203.373 61.5374 202.262 61.2747 200.877 61.1076C199.994 61.0001 199.349 60.9165 199.349 60.2478C199.349 59.6866 199.922 59.3284 200.77 59.3284C201.606 59.3284 202.179 59.7941 202.25 60.415H203.253C203.158 59.1493 202.155 58.5045 200.77 58.4925C199.397 58.4806 198.382 59.209 198.382 60.3195C198.382 61.5852 199.468 61.8598 200.829 62.027C201.737 62.1345 202.406 62.1942 202.406 62.9584C202.406 63.5196 201.797 63.8898 200.937 63.8898C199.922 63.8898 199.289 63.3644 199.253 62.6479H198.25ZM207.266 64.7256C209.045 64.7256 210.287 63.4599 210.287 61.6091C210.287 59.7582 209.045 58.4925 207.266 58.4925C205.487 58.4925 204.245 59.7582 204.245 61.6091C204.245 63.4599 205.487 64.7256 207.266 64.7256ZM207.266 63.854C206.06 63.854 205.248 62.9106 205.248 61.6091C205.248 60.3075 206.06 59.3642 207.266 59.3642C208.472 59.3642 209.284 60.3075 209.284 61.6091C209.284 62.9106 208.472 63.854 207.266 63.854ZM211.41 64.654H212.389V56.2954H211.41V64.654ZM217.993 61.6091C217.993 62.9823 217.324 63.8301 216.214 63.8301C215.199 63.8301 214.626 63.1614 214.626 61.8957V58.5642H213.647V61.9554C213.647 63.9734 214.709 64.7256 216.047 64.7256C217.05 64.7256 217.635 64.2958 217.993 63.842L218.124 64.654H218.972V58.5642H217.993V61.6091ZM220.784 63.0659C220.784 64.1405 221.202 64.654 222.372 64.654H223.435V63.7584H222.468C221.942 63.7584 221.763 63.5674 221.763 63.0539V59.4597H223.339V58.5642H221.763V56.8566H220.784V58.5642H219.686V59.4597H220.784V63.0659ZM224.785 57.5372C225.143 57.5372 225.418 57.2745 225.418 56.9044C225.418 56.5342 225.143 56.2715 224.785 56.2715C224.427 56.2715 224.152 56.5342 224.152 56.9044C224.152 57.2745 224.427 57.5372 224.785 57.5372ZM224.283 64.654H225.263V58.5642H224.283V64.654ZM229.41 64.7256C231.189 64.7256 232.431 63.4599 232.431 61.6091C232.431 59.7582 231.189 58.4925 229.41 58.4925C227.631 58.4925 226.389 59.7582 226.389 61.6091C226.389 63.4599 227.631 64.7256 229.41 64.7256ZM229.41 63.854C228.204 63.854 227.392 62.9106 227.392 61.6091C227.392 60.3075 228.204 59.3642 229.41 59.3642C230.616 59.3642 231.428 60.3075 231.428 61.6091C231.428 62.9106 230.616 63.854 229.41 63.854ZM236.539 58.4925C235.512 58.4925 234.891 58.9224 234.533 59.3881L234.402 58.5642H233.554V64.654H234.533V61.6091C234.533 60.2359 235.226 59.3881 236.372 59.3881C237.435 59.3881 238.02 60.0568 238.02 61.3225V64.654H238.999V61.2628C238.999 59.2448 237.912 58.4925 236.539 58.4925ZM241.525 62.2539H240.844L240.546 56.1282H241.824L241.525 62.2539ZM240.438 64.0092C240.438 63.7146 240.51 63.5077 240.653 63.3883C240.797 63.2689 240.972 63.2091 241.179 63.2091C241.378 63.2091 241.549 63.2689 241.692 63.3883C241.843 63.5077 241.919 63.7146 241.919 64.0092C241.919 64.2958 241.843 64.5027 241.692 64.6301C241.549 64.7575 241.378 64.8212 241.179 64.8212C240.972 64.8212 240.797 64.7575 240.653 64.6301C240.51 64.5027 240.438 64.2958 240.438 64.0092Z" fill="#515251"/>
</g>
<defs>
<filter id="filter0_d_4_4120" x="0.677437" y="0.816639" width="295.714" height="131.527" filterUnits="userSpaceOnUse" color-interpolation-filters="sRGB">
<feFlood flood-opacity="0" result="BackgroundImageFix"/>
<feColorMatrix in="SourceAlpha" type="matrix" values="0 0 0 0 0 0 0 0 0 0 0 0 0 0 0 0 0 0 127 0" result="hardAlpha"/>
<feOffset dy="14.9261"/>
<feGaussianBlur stdDeviation="17.9113"/>
<feColorMatrix type="matrix" values="0 0 0 0 0.666667 0 0 0 0 0.666667 0 0 0 0 0.666667 0 0 0 0.29 0"/>
<feBlend mode="normal" in2="BackgroundImageFix" result="effect1_dropShadow_4_4120"/>
<feBlend mode="normal" in="SourceGraphic" in2="effect1_dropShadow_4_4120" result="shape"/>
</filter>
<clipPath id="clip0_4_4120">
<rect width="20" height="20" fill="white" transform="translate(56.4408 41.654)"/>
</clipPath>
</defs>
</svg>
