<svg width="291" height="130" viewBox="0 0 291 130" fill="none" xmlns="http://www.w3.org/2000/svg">
<g filter="url(#filter0_d_4_4115)">
<path d="M35.7334 32.4493C35.7334 25.9977 40.9635 20.7676 47.4151 20.7676H244.038C250.49 20.7676 255.72 25.9977 255.72 32.4493V80.131H47.4151C40.9635 80.131 35.7334 74.9009 35.7334 68.4493V32.4493Z" fill="white"/>
<rect x="47.415" y="32.4493" width="36" height="36" rx="16" fill="#11453B"/>
<path d="M57.29 57.9493H73.54M58.54 42.9493V57.9493M67.29 42.9493V57.9493M72.29 46.6993V57.9493M61.04 46.0743H61.665M61.04 48.5743H61.665M61.04 51.0743H61.665M64.165 46.0743H64.79M64.165 48.5743H64.79M64.165 51.0743H64.79M61.04 57.9493V55.1368C61.04 54.6191 61.4598 54.1993 61.9775 54.1993H63.8525C64.3703 54.1993 64.79 54.6191 64.79 55.1368V57.9493M57.915 42.9493H67.915M67.29 46.6993H72.915M69.79 49.8243H69.7963V49.8306H69.79V49.8243ZM69.79 52.3243H69.7963V52.3306H69.79V52.3243ZM69.79 54.8243H69.7963V54.8306H69.79V54.8243Z" stroke="white" stroke-width="1.5" stroke-linecap="round" stroke-linejoin="round"/>
<path d="M94.4543 43.4401C94.4543 44.176 94.1506 44.5148 93.4146 44.5148H92.4801V45.4493H93.5431C94.8048 45.4493 95.4706 44.7835 95.4706 43.5219V37.2722H94.4543V43.4401ZM99.6598 45.5194C101.4 45.5194 102.615 44.2812 102.615 42.4705C102.615 40.6599 101.4 39.4216 99.6598 39.4216C97.9192 39.4216 96.7043 40.6599 96.7043 42.4705C96.7043 44.2812 97.9192 45.5194 99.6598 45.5194ZM99.6598 44.6667C98.4799 44.6667 97.6856 43.7438 97.6856 42.4705C97.6856 41.1972 98.4799 40.2744 99.6598 40.2744C100.84 40.2744 101.634 41.1972 101.634 42.4705C101.634 43.7438 100.84 44.6667 99.6598 44.6667ZM104.204 38.4871C104.555 38.4871 104.823 38.2301 104.823 37.8679C104.823 37.5058 104.555 37.2488 104.204 37.2488C103.854 37.2488 103.585 37.5058 103.585 37.8679C103.585 38.2301 103.854 38.4871 104.204 38.4871ZM103.714 45.4493H104.672V39.4917H103.714V45.4493ZM108.904 39.4216C107.9 39.4216 107.292 39.8421 106.942 40.2977L106.813 39.4917H105.984V45.4493H106.942V42.4705C106.942 41.1271 107.619 40.2977 108.741 40.2977C109.78 40.2977 110.353 40.9519 110.353 42.1902V45.4493H111.311V42.1317C111.311 40.1575 110.248 39.4216 108.904 39.4216ZM149.21 39.4216C148.206 39.4216 147.563 39.9005 147.166 40.4496V37.2722H146.208V45.4493H147.037L147.166 44.5382C147.528 45.1106 148.206 45.5194 149.21 45.5194C150.857 45.5194 152.072 44.2929 152.072 42.4705C152.072 40.5314 150.857 39.4216 149.21 39.4216ZM149.117 44.6667C147.949 44.6667 147.154 43.7555 147.154 42.4471C147.154 41.1738 147.949 40.2744 149.117 40.2744C150.297 40.2744 151.091 41.1738 151.091 42.4705C151.091 43.7672 150.297 44.6667 149.117 44.6667ZM157.337 42.4705C157.337 43.8139 156.683 44.6433 155.597 44.6433C154.604 44.6433 154.043 43.9891 154.043 42.7509V39.4917H153.085V42.8093C153.085 44.7835 154.125 45.5194 155.433 45.5194C156.414 45.5194 156.987 45.0989 157.337 44.655L157.466 45.4493H158.295V39.4917H157.337V42.4705ZM159.356 43.4868C159.379 44.7952 160.442 45.5194 161.984 45.5194C163.304 45.5194 164.367 44.8302 164.367 43.7205C164.367 42.4004 163.281 42.1434 161.926 41.9799C161.061 41.8747 160.43 41.793 160.43 41.1388C160.43 40.5898 160.991 40.2393 161.82 40.2393C162.638 40.2393 163.199 40.6949 163.269 41.3023H164.25C164.157 40.0641 163.176 39.4333 161.82 39.4216C160.477 39.4099 159.484 40.1225 159.484 41.2089C159.484 42.4471 160.547 42.7158 161.879 42.8794C162.767 42.9845 163.421 43.0429 163.421 43.7905C163.421 44.3396 162.825 44.7017 161.984 44.7017C160.991 44.7017 160.372 44.1877 160.337 43.4868H159.356ZM165.921 38.4871C166.271 38.4871 166.54 38.2301 166.54 37.8679C166.54 37.5058 166.271 37.2488 165.921 37.2488C165.571 37.2488 165.302 37.5058 165.302 37.8679C165.302 38.2301 165.571 38.4871 165.921 38.4871ZM165.43 45.4493H166.388V39.4917H165.43V45.4493ZM170.621 39.4216C169.616 39.4216 169.009 39.8421 168.658 40.2977L168.53 39.4917H167.701V45.4493H168.658V42.4705C168.658 41.1271 169.336 40.2977 170.457 40.2977C171.497 40.2977 172.069 40.9519 172.069 42.1902V45.4493H173.027V42.1317C173.027 40.1575 171.964 39.4216 170.621 39.4216ZM176.925 45.5194C178.304 45.5194 179.285 44.6433 179.519 43.4518H178.549C178.351 44.2228 177.696 44.6667 176.855 44.6667C175.722 44.6667 175.01 43.8723 174.975 42.7392V42.6574H179.601C179.612 42.5172 179.624 42.3771 179.624 42.2486C179.577 40.4846 178.479 39.4216 176.797 39.4216C175.115 39.4216 173.97 40.6599 173.97 42.4705C173.97 44.2929 175.138 45.5194 176.925 45.5194ZM175.033 41.8631C175.126 40.8935 175.932 40.2627 176.809 40.2627C177.802 40.2627 178.502 40.8351 178.596 41.8631H175.033ZM180.449 43.4868C180.472 44.7952 181.535 45.5194 183.077 45.5194C184.397 45.5194 185.46 44.8302 185.46 43.7205C185.46 42.4004 184.374 42.1434 183.019 41.9799C182.154 41.8747 181.524 41.793 181.524 41.1388C181.524 40.5898 182.084 40.2393 182.914 40.2393C183.731 40.2393 184.292 40.6949 184.362 41.3023H185.343C185.25 40.0641 184.269 39.4333 182.914 39.4216C181.57 39.4099 180.577 40.1225 180.577 41.2089C180.577 42.4471 181.64 42.7158 182.972 42.8794C183.86 42.9845 184.514 43.0429 184.514 43.7905C184.514 44.3396 183.918 44.7017 183.077 44.7017C182.084 44.7017 181.465 44.1877 181.43 43.4868H180.449ZM186.164 43.4868C186.188 44.7952 187.251 45.5194 188.793 45.5194C190.113 45.5194 191.176 44.8302 191.176 43.7205C191.176 42.4004 190.089 42.1434 188.734 41.9799C187.87 41.8747 187.239 41.793 187.239 41.1388C187.239 40.5898 187.8 40.2393 188.629 40.2393C189.447 40.2393 190.007 40.6949 190.078 41.3023H191.059C190.965 40.0641 189.984 39.4333 188.629 39.4216C187.286 39.4099 186.293 40.1225 186.293 41.2089C186.293 42.4471 187.356 42.7158 188.687 42.8794C189.575 42.9845 190.229 43.0429 190.229 43.7905C190.229 44.3396 189.634 44.7017 188.793 44.7017C187.8 44.7017 187.18 44.1877 187.145 43.4868H186.164ZM194.984 45.5194C196.363 45.5194 197.344 44.6433 197.577 43.4518H196.608C196.409 44.2228 195.755 44.6667 194.914 44.6667C193.781 44.6667 193.068 43.8723 193.033 42.7392V42.6574H197.659C197.671 42.5172 197.683 42.3771 197.683 42.2486C197.636 40.4846 196.538 39.4216 194.856 39.4216C193.173 39.4216 192.029 40.6599 192.029 42.4705C192.029 44.2929 193.197 45.5194 194.984 45.5194ZM193.092 41.8631C193.185 40.8935 193.991 40.2627 194.867 40.2627C195.86 40.2627 196.561 40.8351 196.655 41.8631H193.092ZM198.508 43.4868C198.531 44.7952 199.594 45.5194 201.136 45.5194C202.456 45.5194 203.519 44.8302 203.519 43.7205C203.519 42.4004 202.433 42.1434 201.077 41.9799C200.213 41.8747 199.582 41.793 199.582 41.1388C199.582 40.5898 200.143 40.2393 200.972 40.2393C201.79 40.2393 202.351 40.6949 202.421 41.3023H203.402C203.309 40.0641 202.327 39.4333 200.972 39.4216C199.629 39.4099 198.636 40.1225 198.636 41.2089C198.636 42.4471 199.699 42.7158 201.031 42.8794C201.919 42.9845 202.573 43.0429 202.573 43.7905C202.573 44.3396 201.977 44.7017 201.136 44.7017C200.143 44.7017 199.524 44.1877 199.489 43.4868H198.508ZM211.81 42.4705C211.81 43.8139 211.156 44.6433 210.069 44.6433C209.076 44.6433 208.516 43.9891 208.516 42.7509V39.4917H207.558V42.8093C207.558 44.7835 208.597 45.5194 209.906 45.5194C210.887 45.5194 211.459 45.0989 211.81 44.655L211.938 45.4493H212.768V39.4917H211.81V42.4705ZM213.828 43.4868C213.852 44.7952 214.915 45.5194 216.457 45.5194C217.777 45.5194 218.84 44.8302 218.84 43.7205C218.84 42.4004 217.753 42.1434 216.398 41.9799C215.534 41.8747 214.903 41.793 214.903 41.1388C214.903 40.5898 215.464 40.2393 216.293 40.2393C217.111 40.2393 217.672 40.6949 217.742 41.3023H218.723C218.629 40.0641 217.648 39.4333 216.293 39.4216C214.95 39.4099 213.957 40.1225 213.957 41.2089C213.957 42.4471 215.02 42.7158 216.352 42.8794C217.239 42.9845 217.894 43.0429 217.894 43.7905C217.894 44.3396 217.298 44.7017 216.457 44.7017C215.464 44.7017 214.845 44.1877 214.81 43.4868H213.828ZM220.394 38.4871C220.744 38.4871 221.013 38.2301 221.013 37.8679C221.013 37.5058 220.744 37.2488 220.394 37.2488C220.043 37.2488 219.775 37.5058 219.775 37.8679C219.775 38.2301 220.043 38.4871 220.394 38.4871ZM219.903 45.4493H220.861V39.4917H219.903V45.4493ZM225.094 39.4216C224.089 39.4216 223.482 39.8421 223.131 40.2977L223.003 39.4917H222.173V45.4493H223.131V42.4705C223.131 41.1271 223.809 40.2977 224.93 40.2977C225.97 40.2977 226.542 40.9519 226.542 42.1902V45.4493H227.5V42.1317C227.5 40.1575 226.437 39.4216 225.094 39.4216ZM233.417 40.5197C233.044 39.8538 232.378 39.4216 231.373 39.4216C229.726 39.4216 228.511 40.6482 228.511 42.4705C228.511 44.4097 229.726 45.5194 231.373 45.5194C232.378 45.5194 233.02 45.0989 233.417 44.4214V45.1223C233.417 46.4189 232.74 47.003 231.49 47.003C230.497 47.003 229.831 46.5825 229.668 45.8348H228.686C228.838 47.1432 229.901 47.8558 231.42 47.8558C233.464 47.8558 234.375 46.8745 234.375 45.1573V39.4917H233.546L233.417 40.5197ZM231.467 44.6667C230.287 44.6667 229.492 43.7672 229.492 42.4705C229.492 41.1738 230.287 40.2744 231.467 40.2744C232.635 40.2744 233.429 41.1855 233.429 42.4939C233.429 43.7672 232.635 44.6667 231.467 44.6667ZM92.9707 63.4493H98.3326V62.5148H93.9871V59.7579H97.4799V58.8234H93.9871V56.2067H98.1808V55.2722H92.9707V63.4493ZM104.43 62.5732C104.162 62.5732 104.045 62.4914 104.045 62.176V59.571C104.045 58.1809 103.169 57.4216 101.65 57.4216C100.213 57.4216 99.2671 58.1108 99.1269 59.279H100.085C100.202 58.6715 100.762 58.2744 101.603 58.2744C102.538 58.2744 103.087 58.7416 103.087 59.5126V59.9215H101.335C99.7694 59.9215 98.94 60.5873 98.94 61.7789C98.94 62.8653 99.8278 63.5194 101.136 63.5194C102.164 63.5194 102.76 63.0638 103.134 62.5265C103.145 63.1106 103.414 63.4493 104.208 63.4493H104.734V62.5732H104.43ZM103.087 61.0196C103.087 62.0125 102.398 62.7017 101.206 62.7017C100.412 62.7017 99.9096 62.3045 99.9096 61.7205C99.9096 61.0429 100.389 60.7275 101.241 60.7275H103.087V61.0196ZM105.282 58.3678H108.74L105.13 62.7251V63.4493H110.177V62.5732H106.404L110.025 58.2159V57.4917H105.282V58.3678ZM111.574 56.4871C111.924 56.4871 112.193 56.2301 112.193 55.8679C112.193 55.5058 111.924 55.2488 111.574 55.2488C111.223 55.2488 110.955 55.5058 110.955 55.8679C110.955 56.2301 111.223 56.4871 111.574 56.4871ZM111.083 63.4493H112.041V57.4917H111.083V63.4493ZM116.356 57.4216C115.351 57.4216 114.708 57.9005 114.311 58.4496L114.183 57.4917H113.353V65.7857H114.311V62.5382C114.673 63.1106 115.351 63.5194 116.356 63.5194C118.003 63.5194 119.218 62.2929 119.218 60.4705C119.218 58.5314 118.003 57.4216 116.356 57.4216ZM116.262 62.6667C115.094 62.6667 114.3 61.7555 114.3 60.4471C114.3 59.1738 115.094 58.2744 116.262 58.2744C117.442 58.2744 118.236 59.1738 118.236 60.4705C118.236 61.7672 117.442 62.6667 116.262 62.6667ZM125.581 62.5732C125.312 62.5732 125.195 62.4914 125.195 62.176V59.571C125.195 58.1809 124.319 57.4216 122.8 57.4216C121.364 57.4216 120.417 58.1108 120.277 59.279H121.235C121.352 58.6715 121.913 58.2744 122.754 58.2744C123.688 58.2744 124.237 58.7416 124.237 59.5126V59.9215H122.485C120.92 59.9215 120.09 60.5873 120.09 61.7789C120.09 62.8653 120.978 63.5194 122.286 63.5194C123.314 63.5194 123.91 63.0638 124.284 62.5265C124.296 63.1106 124.564 63.4493 125.359 63.4493H125.884V62.5732H125.581ZM124.237 61.0196C124.237 62.0125 123.548 62.7017 122.356 62.7017C121.562 62.7017 121.06 62.3045 121.06 61.7205C121.06 61.0429 121.539 60.7275 122.392 60.7275H124.237V61.0196ZM128.133 63.4844L127.841 64.2086C127.619 64.7694 127.525 64.9096 126.976 64.9096H126.124V65.7857H127.268C128.11 65.7857 128.331 65.4119 128.705 64.454L131.45 57.4917H130.434L128.659 62.2461L126.825 57.4917H125.808L128.133 63.4844ZM133.38 55.1086L133.146 58.1225H132.504L132.27 55.1086H133.38ZM134.543 61.4868C134.567 62.7952 135.63 63.5194 137.172 63.5194C138.492 63.5194 139.555 62.8302 139.555 61.7205C139.555 60.4004 138.469 60.1434 137.113 59.9799C136.249 59.8747 135.618 59.793 135.618 59.1388C135.618 58.5898 136.179 58.2393 137.008 58.2393C137.826 58.2393 138.387 58.6949 138.457 59.3023H139.438C139.345 58.0641 138.363 57.4333 137.008 57.4216C135.665 57.4099 134.672 58.1225 134.672 59.2089C134.672 60.4471 135.735 60.7158 137.067 60.8794C137.955 60.9845 138.609 61.0429 138.609 61.7905C138.609 62.3396 138.013 62.7017 137.172 62.7017C136.179 62.7017 135.56 62.1877 135.525 61.4868H134.543ZM146.421 63.5194C147.799 63.5194 148.78 62.6433 149.014 61.4518H148.044C147.846 62.2228 147.192 62.6667 146.351 62.6667C145.218 62.6667 144.505 61.8723 144.47 60.7392V60.6574H149.096C149.108 60.5172 149.119 60.3771 149.119 60.2486C149.072 58.4846 147.974 57.4216 146.292 57.4216C144.61 57.4216 143.465 58.6599 143.465 60.4705C143.465 62.2929 144.633 63.5194 146.421 63.5194ZM144.528 59.8631C144.622 58.8935 145.428 58.2627 146.304 58.2627C147.297 58.2627 147.998 58.8351 148.091 59.8631H144.528ZM155.481 62.5732C155.212 62.5732 155.095 62.4914 155.095 62.176V59.571C155.095 58.1809 154.219 57.4216 152.7 57.4216C151.264 57.4216 150.317 58.1108 150.177 59.279H151.135C151.252 58.6715 151.813 58.2744 152.654 58.2744C153.588 58.2744 154.137 58.7416 154.137 59.5126V59.9215H152.385C150.82 59.9215 149.99 60.5873 149.99 61.7789C149.99 62.8653 150.878 63.5194 152.186 63.5194C153.214 63.5194 153.81 63.0638 154.184 62.5265C154.196 63.1106 154.464 63.4493 155.259 63.4493H155.784V62.5732H155.481ZM154.137 61.0196C154.137 62.0125 153.448 62.7017 152.257 62.7017C151.462 62.7017 150.96 62.3045 150.96 61.7205C150.96 61.0429 151.439 60.7275 152.292 60.7275H154.137V61.0196ZM156.275 61.4868C156.299 62.7952 157.362 63.5194 158.904 63.5194C160.224 63.5194 161.287 62.8302 161.287 61.7205C161.287 60.4004 160.201 60.1434 158.845 59.9799C157.981 59.8747 157.35 59.793 157.35 59.1388C157.35 58.5898 157.911 58.2393 158.74 58.2393C159.558 58.2393 160.119 58.6949 160.189 59.3023H161.17C161.077 58.0641 160.095 57.4333 158.74 57.4216C157.397 57.4099 156.404 58.1225 156.404 59.2089C156.404 60.4471 157.467 60.7158 158.799 60.8794C159.687 60.9845 160.341 61.0429 160.341 61.7905C160.341 62.3396 159.745 62.7017 158.904 62.7017C157.911 62.7017 157.292 62.1877 157.257 61.4868H156.275ZM163.942 63.4844L163.65 64.2086C163.428 64.7694 163.335 64.9096 162.786 64.9096H161.933V65.7857H163.078C163.919 65.7857 164.141 65.4119 164.515 64.454L167.26 57.4917H166.244L164.468 62.2461L162.634 57.4917H161.618L163.942 63.4844ZM170.786 61.4868C170.81 62.7952 171.873 63.5194 173.415 63.5194C174.735 63.5194 175.798 62.8302 175.798 61.7205C175.798 60.4004 174.711 60.1434 173.356 59.9799C172.492 59.8747 171.861 59.793 171.861 59.1388C171.861 58.5898 172.422 58.2393 173.251 58.2393C174.069 58.2393 174.63 58.6949 174.7 59.3023H175.681C175.588 58.0641 174.606 57.4333 173.251 57.4216C171.908 57.4099 170.915 58.1225 170.915 59.2089C170.915 60.4471 171.978 60.7158 173.31 60.8794C174.197 60.9845 174.852 61.0429 174.852 61.7905C174.852 62.3396 174.256 62.7017 173.415 62.7017C172.422 62.7017 171.803 62.1877 171.768 61.4868H170.786ZM179.606 63.5194C181.347 63.5194 182.562 62.2812 182.562 60.4705C182.562 58.6599 181.347 57.4216 179.606 57.4216C177.866 57.4216 176.651 58.6599 176.651 60.4705C176.651 62.2812 177.866 63.5194 179.606 63.5194ZM179.606 62.6667C178.426 62.6667 177.632 61.7438 177.632 60.4705C177.632 59.1972 178.426 58.2744 179.606 58.2744C180.786 58.2744 181.58 59.1972 181.58 60.4705C181.58 61.7438 180.786 62.6667 179.606 62.6667ZM183.66 63.4493H184.618V55.2722H183.66V63.4493ZM190.101 60.4705C190.101 61.8139 189.447 62.6433 188.36 62.6433C187.367 62.6433 186.806 61.9891 186.806 60.7509V57.4917H185.849V60.8093C185.849 62.7835 186.888 63.5194 188.197 63.5194C189.178 63.5194 189.75 63.0989 190.101 62.655L190.229 63.4493H191.059V57.4917H190.101V60.4705ZM192.831 61.8957C192.831 62.947 193.24 63.4493 194.385 63.4493H195.424V62.5732H194.478C193.964 62.5732 193.789 62.3863 193.789 61.884V58.3678H195.331V57.4917H193.789V55.8212H192.831V57.4917H191.756V58.3678H192.831V61.8957ZM196.745 56.4871C197.096 56.4871 197.364 56.2301 197.364 55.8679C197.364 55.5058 197.096 55.2488 196.745 55.2488C196.395 55.2488 196.126 55.5058 196.126 55.8679C196.126 56.2301 196.395 56.4871 196.745 56.4871ZM196.254 63.4493H197.212V57.4917H196.254V63.4493ZM201.27 63.5194C203.01 63.5194 204.225 62.2812 204.225 60.4705C204.225 58.6599 203.01 57.4216 201.27 57.4216C199.529 57.4216 198.314 58.6599 198.314 60.4705C198.314 62.2812 199.529 63.5194 201.27 63.5194ZM201.27 62.6667C200.09 62.6667 199.296 61.7438 199.296 60.4705C199.296 59.1972 200.09 58.2744 201.27 58.2744C202.45 58.2744 203.244 59.1972 203.244 60.4705C203.244 61.7438 202.45 62.6667 201.27 62.6667ZM208.244 57.4216C207.24 57.4216 206.632 57.8421 206.282 58.2977L206.153 57.4917H205.324V63.4493H206.282V60.4705C206.282 59.1271 206.959 58.2977 208.081 58.2977C209.12 58.2977 209.693 58.9519 209.693 60.1902V63.4493H210.651V60.1317C210.651 58.1575 209.588 57.4216 208.244 57.4216ZM211.755 62.8653C211.755 63.2624 212.035 63.5194 212.421 63.5194C212.806 63.5194 213.087 63.2624 213.087 62.8653C213.087 62.4681 212.806 62.2111 212.421 62.2111C212.035 62.2111 211.755 62.4681 211.755 62.8653Z" fill="#515251"/>
<path d="M118.486 41.7346L115.344 44.4097V45.4493H121.138V44.3162H117.19L119.362 42.5056C119.935 42.0266 120.367 41.5827 120.659 41.1622C120.94 40.7416 121.091 40.2627 121.091 39.702C121.091 38.9426 120.834 38.3352 120.332 37.8796C119.818 37.424 119.117 37.1904 118.206 37.1904C117.634 37.1904 117.131 37.3072 116.711 37.5408C116.279 37.7745 115.94 38.1016 115.706 38.4987C115.472 38.9076 115.356 39.3632 115.356 39.8772V40.0991H116.652V39.9473C116.652 39.4566 116.793 39.0595 117.073 38.7557C117.353 38.452 117.739 38.3002 118.206 38.3002C118.685 38.3002 119.07 38.4287 119.351 38.6856C119.631 38.9426 119.771 39.3048 119.771 39.7604C119.771 40.1225 119.655 40.4496 119.444 40.7533C119.234 41.057 118.907 41.3841 118.486 41.7346ZM122.088 41.1738V41.5477C122.088 42.3654 122.216 43.0663 122.485 43.662C122.754 44.2695 123.128 44.7251 123.618 45.0405C124.109 45.3676 124.67 45.5194 125.312 45.5194C125.943 45.5194 126.492 45.3676 126.983 45.0405C127.473 44.7251 127.847 44.2695 128.116 43.662C128.384 43.0663 128.525 42.3654 128.525 41.5477V41.1738C128.525 40.4029 128.384 39.7136 128.116 39.1062C127.835 38.4987 127.462 38.0315 126.971 37.7044C126.48 37.3773 125.931 37.2021 125.312 37.2021C124.681 37.2021 124.121 37.3773 123.63 37.7044C123.139 38.0315 122.754 38.4987 122.485 39.1062C122.216 39.7136 122.088 40.4029 122.088 41.1738ZM126.702 39.1062C127.053 39.6202 127.228 40.3211 127.228 41.2206V41.5009C127.228 42.4121 127.053 43.113 126.702 43.627C126.352 44.141 125.896 44.3863 125.312 44.3863C124.728 44.3863 124.261 44.141 123.91 43.627C123.56 43.113 123.385 42.4121 123.385 41.5009V41.2206C123.385 40.3211 123.56 39.6202 123.91 39.1062C124.261 38.5922 124.728 38.3352 125.312 38.3352C125.896 38.3352 126.352 38.5922 126.702 39.1062ZM129.503 41.1738V41.5477C129.503 42.3654 129.632 43.0663 129.9 43.662C130.169 44.2695 130.543 44.7251 131.033 45.0405C131.524 45.3676 132.085 45.5194 132.727 45.5194C133.358 45.5194 133.907 45.3676 134.398 45.0405C134.888 44.7251 135.262 44.2695 135.531 43.662C135.8 43.0663 135.94 42.3654 135.94 41.5477V41.1738C135.94 40.4029 135.8 39.7136 135.531 39.1062C135.25 38.4987 134.877 38.0315 134.386 37.7044C133.895 37.3773 133.346 37.2021 132.727 37.2021C132.096 37.2021 131.536 37.3773 131.045 37.7044C130.554 38.0315 130.169 38.4987 129.9 39.1062C129.632 39.7136 129.503 40.4029 129.503 41.1738ZM134.117 39.1062C134.468 39.6202 134.643 40.3211 134.643 41.2206V41.5009C134.643 42.4121 134.468 43.113 134.117 43.627C133.767 44.141 133.311 44.3863 132.727 44.3863C132.143 44.3863 131.676 44.141 131.325 43.627C130.975 43.113 130.8 42.4121 130.8 41.5009V41.2206C130.8 40.3211 130.975 39.6202 131.325 39.1062C131.676 38.5922 132.143 38.3352 132.727 38.3352C133.311 38.3352 133.767 38.5922 134.117 39.1062ZM138.881 39.6085V41.5827H137.023V42.6457H138.881V44.6199H140.037V42.6457H141.906V41.5827H140.037V39.6085H138.881Z" fill="#EA4E4B"/>
</g>
<defs>
<filter id="filter0_d_4_4115" x="0.688362" y="0.324701" width="290.077" height="129.453" filterUnits="userSpaceOnUse" color-interpolation-filters="sRGB">
<feFlood flood-opacity="0" result="BackgroundImageFix"/>
<feColorMatrix in="SourceAlpha" type="matrix" values="0 0 0 0 0 0 0 0 0 0 0 0 0 0 0 0 0 0 127 0" result="hardAlpha"/>
<feOffset dy="14.6021"/>
<feGaussianBlur stdDeviation="17.5225"/>
<feColorMatrix type="matrix" values="0 0 0 0 0.666667 0 0 0 0 0.666667 0 0 0 0 0.666667 0 0 0 0.29 0"/>
<feBlend mode="normal" in2="BackgroundImageFix" result="effect1_dropShadow_4_4115"/>
<feBlend mode="normal" in="SourceGraphic" in2="effect1_dropShadow_4_4115" result="shape"/>
</filter>
</defs>
</svg>
